<svg xmlns="http://www.w3.org/2000/svg" xmlns:xlink="http://www.w3.org/1999/xlink" width="500" zoomAndPan="magnify" viewBox="0 0 375 112.499997" height="150" preserveAspectRatio="xMidYMid meet" version="1.0"><defs><g/></defs><g fill="#3aacff" fill-opacity="1"><g transform="translate(32.691008, 106.057564)"><g><path d="M 6.1875 -11.09375 C 7.28125 -11.09375 8.1875 -10.921875 8.90625 -10.578125 C 9.632812 -10.234375 10 -9.789062 10 -9.25 C 10 -9.019531 9.921875 -8.8125 9.765625 -8.625 C 9.617188 -8.4375 9.425781 -8.34375 9.1875 -8.34375 C 9.007812 -8.34375 8.867188 -8.367188 8.765625 -8.421875 C 8.660156 -8.484375 8.519531 -8.570312 8.34375 -8.6875 C 8.257812 -8.769531 8.128906 -8.867188 7.953125 -8.984375 C 7.785156 -9.066406 7.550781 -9.132812 7.25 -9.1875 C 6.945312 -9.25 6.671875 -9.28125 6.421875 -9.28125 C 5.703125 -9.28125 5.066406 -9.113281 4.515625 -8.78125 C 3.960938 -8.445312 3.535156 -7.984375 3.234375 -7.390625 C 2.929688 -6.804688 2.78125 -6.15625 2.78125 -5.4375 C 2.78125 -4.707031 2.925781 -4.050781 3.21875 -3.46875 C 3.519531 -2.894531 3.9375 -2.441406 4.46875 -2.109375 C 5.007812 -1.773438 5.625 -1.609375 6.3125 -1.609375 C 7.03125 -1.609375 7.609375 -1.722656 8.046875 -1.953125 C 8.148438 -2.003906 8.285156 -2.09375 8.453125 -2.21875 C 8.585938 -2.320312 8.707031 -2.398438 8.8125 -2.453125 C 8.914062 -2.515625 9.039062 -2.546875 9.1875 -2.546875 C 9.46875 -2.546875 9.6875 -2.457031 9.84375 -2.28125 C 10 -2.113281 10.078125 -1.890625 10.078125 -1.609375 C 10.078125 -1.328125 9.894531 -1.039062 9.53125 -0.75 C 9.164062 -0.46875 8.675781 -0.238281 8.0625 -0.0625 C 7.445312 0.113281 6.789062 0.203125 6.09375 0.203125 C 5.039062 0.203125 4.113281 -0.0390625 3.3125 -0.53125 C 2.507812 -1.019531 1.890625 -1.691406 1.453125 -2.546875 C 1.023438 -3.410156 0.8125 -4.375 0.8125 -5.4375 C 0.8125 -6.5 1.035156 -7.460938 1.484375 -8.328125 C 1.941406 -9.191406 2.578125 -9.867188 3.390625 -10.359375 C 4.203125 -10.847656 5.132812 -11.09375 6.1875 -11.09375 Z M 6.1875 -11.09375 "/></g></g></g><g fill="#3aacff" fill-opacity="1"><g transform="translate(47.964104, 106.057564)"><g><path d="M 11.734375 -5.421875 C 11.734375 -4.347656 11.492188 -3.378906 11.015625 -2.515625 C 10.535156 -1.660156 9.875 -0.992188 9.03125 -0.515625 C 8.195312 -0.0351562 7.273438 0.203125 6.265625 0.203125 C 5.265625 0.203125 4.34375 -0.0351562 3.5 -0.515625 C 2.664062 -0.992188 2.007812 -1.660156 1.53125 -2.515625 C 1.050781 -3.378906 0.8125 -4.347656 0.8125 -5.421875 C 0.8125 -6.492188 1.050781 -7.460938 1.53125 -8.328125 C 2.007812 -9.203125 2.664062 -9.878906 3.5 -10.359375 C 4.34375 -10.847656 5.265625 -11.09375 6.265625 -11.09375 C 7.273438 -11.09375 8.195312 -10.847656 9.03125 -10.359375 C 9.875 -9.878906 10.535156 -9.203125 11.015625 -8.328125 C 11.492188 -7.460938 11.734375 -6.492188 11.734375 -5.421875 Z M 9.765625 -5.421875 C 9.765625 -6.171875 9.609375 -6.835938 9.296875 -7.421875 C 8.992188 -8.003906 8.578125 -8.457031 8.046875 -8.78125 C 7.515625 -9.113281 6.921875 -9.28125 6.265625 -9.28125 C 5.617188 -9.28125 5.03125 -9.113281 4.5 -8.78125 C 3.96875 -8.457031 3.546875 -8.003906 3.234375 -7.421875 C 2.929688 -6.835938 2.78125 -6.171875 2.78125 -5.421875 C 2.78125 -4.691406 2.929688 -4.035156 3.234375 -3.453125 C 3.546875 -2.878906 3.96875 -2.425781 4.5 -2.09375 C 5.03125 -1.769531 5.617188 -1.609375 6.265625 -1.609375 C 6.921875 -1.609375 7.515625 -1.769531 8.046875 -2.09375 C 8.578125 -2.425781 8.992188 -2.878906 9.296875 -3.453125 C 9.609375 -4.035156 9.765625 -4.691406 9.765625 -5.421875 Z M 9.765625 -5.421875 "/></g></g></g><g fill="#3aacff" fill-opacity="1"><g transform="translate(65.140816, 106.057564)"><g><path d="M 7 -11.09375 C 9.476562 -11.09375 10.71875 -9.601562 10.71875 -6.625 L 10.71875 -1 C 10.71875 -0.71875 10.625 -0.476562 10.4375 -0.28125 C 10.257812 -0.09375 10.023438 0 9.734375 0 C 9.453125 0 9.21875 -0.09375 9.03125 -0.28125 C 8.84375 -0.476562 8.75 -0.71875 8.75 -1 L 8.75 -6.609375 C 8.75 -7.421875 8.5625 -8.066406 8.1875 -8.546875 C 7.820312 -9.035156 7.21875 -9.28125 6.375 -9.28125 C 5.820312 -9.28125 5.320312 -9.15625 4.875 -8.90625 C 4.425781 -8.664062 4.070312 -8.34375 3.8125 -7.9375 C 3.5625 -7.53125 3.4375 -7.085938 3.4375 -6.609375 L 3.4375 -1 C 3.4375 -0.71875 3.34375 -0.476562 3.15625 -0.28125 C 2.96875 -0.09375 2.726562 0 2.4375 0 C 2.15625 0 1.921875 -0.09375 1.734375 -0.28125 C 1.554688 -0.46875 1.46875 -0.707031 1.46875 -1 L 1.46875 -9.859375 C 1.46875 -10.128906 1.5625 -10.359375 1.75 -10.546875 C 1.9375 -10.742188 2.164062 -10.84375 2.4375 -10.84375 C 2.726562 -10.84375 2.96875 -10.742188 3.15625 -10.546875 C 3.34375 -10.359375 3.4375 -10.128906 3.4375 -9.859375 L 3.4375 -9.125 C 3.789062 -9.675781 4.289062 -10.140625 4.9375 -10.515625 C 5.582031 -10.898438 6.269531 -11.09375 7 -11.09375 Z M 7 -11.09375 "/></g></g></g><g fill="#3aacff" fill-opacity="1"><g transform="translate(81.965763, 106.057564)"><g><path d="M 6.1875 -11.09375 C 7.28125 -11.09375 8.1875 -10.921875 8.90625 -10.578125 C 9.632812 -10.234375 10 -9.789062 10 -9.25 C 10 -9.019531 9.921875 -8.8125 9.765625 -8.625 C 9.617188 -8.4375 9.425781 -8.34375 9.1875 -8.34375 C 9.007812 -8.34375 8.867188 -8.367188 8.765625 -8.421875 C 8.660156 -8.484375 8.519531 -8.570312 8.34375 -8.6875 C 8.257812 -8.769531 8.128906 -8.867188 7.953125 -8.984375 C 7.785156 -9.066406 7.550781 -9.132812 7.25 -9.1875 C 6.945312 -9.25 6.671875 -9.28125 6.421875 -9.28125 C 5.703125 -9.28125 5.066406 -9.113281 4.515625 -8.78125 C 3.960938 -8.445312 3.535156 -7.984375 3.234375 -7.390625 C 2.929688 -6.804688 2.78125 -6.15625 2.78125 -5.4375 C 2.78125 -4.707031 2.925781 -4.050781 3.21875 -3.46875 C 3.519531 -2.894531 3.9375 -2.441406 4.46875 -2.109375 C 5.007812 -1.773438 5.625 -1.609375 6.3125 -1.609375 C 7.03125 -1.609375 7.609375 -1.722656 8.046875 -1.953125 C 8.148438 -2.003906 8.285156 -2.09375 8.453125 -2.21875 C 8.585938 -2.320312 8.707031 -2.398438 8.8125 -2.453125 C 8.914062 -2.515625 9.039062 -2.546875 9.1875 -2.546875 C 9.46875 -2.546875 9.6875 -2.457031 9.84375 -2.28125 C 10 -2.113281 10.078125 -1.890625 10.078125 -1.609375 C 10.078125 -1.328125 9.894531 -1.039062 9.53125 -0.75 C 9.164062 -0.46875 8.675781 -0.238281 8.0625 -0.0625 C 7.445312 0.113281 6.789062 0.203125 6.09375 0.203125 C 5.039062 0.203125 4.113281 -0.0390625 3.3125 -0.53125 C 2.507812 -1.019531 1.890625 -1.691406 1.453125 -2.546875 C 1.023438 -3.410156 0.8125 -4.375 0.8125 -5.4375 C 0.8125 -6.5 1.035156 -7.460938 1.484375 -8.328125 C 1.941406 -9.191406 2.578125 -9.867188 3.390625 -10.359375 C 4.203125 -10.847656 5.132812 -11.09375 6.1875 -11.09375 Z M 6.1875 -11.09375 "/></g></g></g><g fill="#3aacff" fill-opacity="1"><g transform="translate(97.23886, 106.057564)"><g><path d="M 11 -5.84375 C 10.976562 -5.59375 10.867188 -5.378906 10.671875 -5.203125 C 10.484375 -5.035156 10.257812 -4.953125 10 -4.953125 L 2.71875 -4.953125 C 2.8125 -3.941406 3.191406 -3.128906 3.859375 -2.515625 C 4.523438 -1.910156 5.34375 -1.609375 6.3125 -1.609375 C 6.976562 -1.609375 7.515625 -1.703125 7.921875 -1.890625 C 8.335938 -2.085938 8.707031 -2.34375 9.03125 -2.65625 C 9.238281 -2.78125 9.4375 -2.84375 9.625 -2.84375 C 9.863281 -2.84375 10.0625 -2.757812 10.21875 -2.59375 C 10.375 -2.425781 10.453125 -2.234375 10.453125 -2.015625 C 10.453125 -1.722656 10.316406 -1.457031 10.046875 -1.21875 C 9.640625 -0.820312 9.101562 -0.484375 8.4375 -0.203125 C 7.78125 0.0664062 7.109375 0.203125 6.421875 0.203125 C 5.296875 0.203125 4.304688 -0.03125 3.453125 -0.5 C 2.609375 -0.96875 1.957031 -1.617188 1.5 -2.453125 C 1.039062 -3.296875 0.8125 -4.253906 0.8125 -5.328125 C 0.8125 -6.484375 1.046875 -7.5 1.515625 -8.375 C 1.992188 -9.25 2.625 -9.921875 3.40625 -10.390625 C 4.1875 -10.859375 5.023438 -11.09375 5.921875 -11.09375 C 6.804688 -11.09375 7.632812 -10.863281 8.40625 -10.40625 C 9.175781 -9.957031 9.796875 -9.332031 10.265625 -8.53125 C 10.734375 -7.726562 10.976562 -6.832031 11 -5.84375 Z M 5.921875 -9.28125 C 5.148438 -9.28125 4.476562 -9.0625 3.90625 -8.625 C 3.34375 -8.1875 2.972656 -7.515625 2.796875 -6.609375 L 8.90625 -6.609375 L 8.90625 -6.765625 C 8.832031 -7.492188 8.5 -8.09375 7.90625 -8.5625 C 7.320312 -9.039062 6.660156 -9.28125 5.921875 -9.28125 Z M 5.921875 -9.28125 "/></g></g></g><g fill="#3aacff" fill-opacity="1"><g transform="translate(113.670669, 106.057564)"><g><path d="M 0.84375 -1.703125 C 0.71875 -1.890625 0.65625 -2.070312 0.65625 -2.25 C 0.65625 -2.53125 0.800781 -2.765625 1.09375 -2.953125 C 1.226562 -3.054688 1.390625 -3.109375 1.578125 -3.109375 C 1.828125 -3.109375 2.050781 -3.003906 2.25 -2.796875 C 2.664062 -2.328125 3.113281 -1.972656 3.59375 -1.734375 C 4.070312 -1.503906 4.640625 -1.390625 5.296875 -1.390625 C 5.828125 -1.398438 6.289062 -1.519531 6.6875 -1.75 C 7.082031 -1.976562 7.28125 -2.347656 7.28125 -2.859375 C 7.28125 -3.328125 7.078125 -3.6875 6.671875 -3.9375 C 6.265625 -4.1875 5.671875 -4.410156 4.890625 -4.609375 C 4.109375 -4.816406 3.460938 -5.035156 2.953125 -5.265625 C 2.441406 -5.492188 2.007812 -5.828125 1.65625 -6.265625 C 1.3125 -6.703125 1.140625 -7.269531 1.140625 -7.96875 C 1.140625 -8.59375 1.3125 -9.140625 1.65625 -9.609375 C 2.007812 -10.078125 2.476562 -10.441406 3.0625 -10.703125 C 3.65625 -10.960938 4.296875 -11.09375 4.984375 -11.09375 C 5.648438 -11.09375 6.3125 -10.96875 6.96875 -10.71875 C 7.625 -10.46875 8.160156 -10.085938 8.578125 -9.578125 C 8.734375 -9.390625 8.8125 -9.191406 8.8125 -8.984375 C 8.8125 -8.765625 8.703125 -8.550781 8.484375 -8.34375 C 8.347656 -8.21875 8.175781 -8.15625 7.96875 -8.15625 C 7.71875 -8.15625 7.519531 -8.238281 7.375 -8.40625 C 7.082031 -8.738281 6.722656 -8.992188 6.296875 -9.171875 C 5.878906 -9.347656 5.414062 -9.4375 4.90625 -9.4375 C 4.382812 -9.4375 3.9375 -9.328125 3.5625 -9.109375 C 3.195312 -8.898438 3.015625 -8.539062 3.015625 -8.03125 C 3.035156 -7.550781 3.25 -7.191406 3.65625 -6.953125 C 4.0625 -6.722656 4.6875 -6.492188 5.53125 -6.265625 C 6.257812 -6.078125 6.863281 -5.875 7.34375 -5.65625 C 7.832031 -5.4375 8.238281 -5.109375 8.5625 -4.671875 C 8.894531 -4.234375 9.0625 -3.660156 9.0625 -2.953125 C 9.0625 -2.304688 8.875 -1.742188 8.5 -1.265625 C 8.132812 -0.796875 7.648438 -0.429688 7.046875 -0.171875 C 6.453125 0.078125 5.816406 0.203125 5.140625 0.203125 C 4.265625 0.203125 3.457031 0.0507812 2.71875 -0.25 C 1.976562 -0.550781 1.351562 -1.035156 0.84375 -1.703125 Z M 0.84375 -1.703125 "/></g></g></g><g fill="#3aacff" fill-opacity="1"><g transform="translate(128.178196, 106.057564)"><g><path d="M 0.84375 -1.703125 C 0.71875 -1.890625 0.65625 -2.070312 0.65625 -2.25 C 0.65625 -2.53125 0.800781 -2.765625 1.09375 -2.953125 C 1.226562 -3.054688 1.390625 -3.109375 1.578125 -3.109375 C 1.828125 -3.109375 2.050781 -3.003906 2.25 -2.796875 C 2.664062 -2.328125 3.113281 -1.972656 3.59375 -1.734375 C 4.070312 -1.503906 4.640625 -1.390625 5.296875 -1.390625 C 5.828125 -1.398438 6.289062 -1.519531 6.6875 -1.75 C 7.082031 -1.976562 7.28125 -2.347656 7.28125 -2.859375 C 7.28125 -3.328125 7.078125 -3.6875 6.671875 -3.9375 C 6.265625 -4.1875 5.671875 -4.410156 4.890625 -4.609375 C 4.109375 -4.816406 3.460938 -5.035156 2.953125 -5.265625 C 2.441406 -5.492188 2.007812 -5.828125 1.65625 -6.265625 C 1.3125 -6.703125 1.140625 -7.269531 1.140625 -7.96875 C 1.140625 -8.59375 1.3125 -9.140625 1.65625 -9.609375 C 2.007812 -10.078125 2.476562 -10.441406 3.0625 -10.703125 C 3.65625 -10.960938 4.296875 -11.09375 4.984375 -11.09375 C 5.648438 -11.09375 6.3125 -10.96875 6.96875 -10.71875 C 7.625 -10.46875 8.160156 -10.085938 8.578125 -9.578125 C 8.734375 -9.390625 8.8125 -9.191406 8.8125 -8.984375 C 8.8125 -8.765625 8.703125 -8.550781 8.484375 -8.34375 C 8.347656 -8.21875 8.175781 -8.15625 7.96875 -8.15625 C 7.71875 -8.15625 7.519531 -8.238281 7.375 -8.40625 C 7.082031 -8.738281 6.722656 -8.992188 6.296875 -9.171875 C 5.878906 -9.347656 5.414062 -9.4375 4.90625 -9.4375 C 4.382812 -9.4375 3.9375 -9.328125 3.5625 -9.109375 C 3.195312 -8.898438 3.015625 -8.539062 3.015625 -8.03125 C 3.035156 -7.550781 3.25 -7.191406 3.65625 -6.953125 C 4.0625 -6.722656 4.6875 -6.492188 5.53125 -6.265625 C 6.257812 -6.078125 6.863281 -5.875 7.34375 -5.65625 C 7.832031 -5.4375 8.238281 -5.109375 8.5625 -4.671875 C 8.894531 -4.234375 9.0625 -3.660156 9.0625 -2.953125 C 9.0625 -2.304688 8.875 -1.742188 8.5 -1.265625 C 8.132812 -0.796875 7.648438 -0.429688 7.046875 -0.171875 C 6.453125 0.078125 5.816406 0.203125 5.140625 0.203125 C 4.265625 0.203125 3.457031 0.0507812 2.71875 -0.25 C 1.976562 -0.550781 1.351562 -1.035156 0.84375 -1.703125 Z M 0.84375 -1.703125 "/></g></g></g><g fill="#3aacff" fill-opacity="1"><g transform="translate(142.685722, 106.057564)"><g><path d="M 3.328125 -1 C 3.328125 -0.71875 3.234375 -0.476562 3.046875 -0.28125 C 2.867188 -0.09375 2.632812 0 2.34375 0 C 2.0625 0 1.828125 -0.09375 1.640625 -0.28125 C 1.453125 -0.476562 1.359375 -0.71875 1.359375 -1 L 1.359375 -9.953125 C 1.359375 -10.234375 1.453125 -10.46875 1.640625 -10.65625 C 1.828125 -10.851562 2.0625 -10.953125 2.34375 -10.953125 C 2.632812 -10.953125 2.867188 -10.851562 3.046875 -10.65625 C 3.234375 -10.46875 3.328125 -10.234375 3.328125 -9.953125 Z M 2.34375 -12.3125 C 1.945312 -12.3125 1.660156 -12.382812 1.484375 -12.53125 C 1.316406 -12.675781 1.234375 -12.910156 1.234375 -13.234375 L 1.234375 -13.5625 C 1.234375 -13.894531 1.320312 -14.128906 1.5 -14.265625 C 1.6875 -14.398438 1.976562 -14.46875 2.375 -14.46875 C 2.757812 -14.46875 3.035156 -14.394531 3.203125 -14.25 C 3.378906 -14.101562 3.46875 -13.875 3.46875 -13.5625 L 3.46875 -13.234375 C 3.46875 -12.898438 3.375 -12.660156 3.1875 -12.515625 C 3.007812 -12.378906 2.726562 -12.3125 2.34375 -12.3125 Z M 2.34375 -12.3125 "/></g></g></g><g fill="#3aacff" fill-opacity="1"><g transform="translate(152.020382, 106.057564)"><g><path d="M 11.734375 -5.421875 C 11.734375 -4.347656 11.492188 -3.378906 11.015625 -2.515625 C 10.535156 -1.660156 9.875 -0.992188 9.03125 -0.515625 C 8.195312 -0.0351562 7.273438 0.203125 6.265625 0.203125 C 5.265625 0.203125 4.34375 -0.0351562 3.5 -0.515625 C 2.664062 -0.992188 2.007812 -1.660156 1.53125 -2.515625 C 1.050781 -3.378906 0.8125 -4.347656 0.8125 -5.421875 C 0.8125 -6.492188 1.050781 -7.460938 1.53125 -8.328125 C 2.007812 -9.203125 2.664062 -9.878906 3.5 -10.359375 C 4.34375 -10.847656 5.265625 -11.09375 6.265625 -11.09375 C 7.273438 -11.09375 8.195312 -10.847656 9.03125 -10.359375 C 9.875 -9.878906 10.535156 -9.203125 11.015625 -8.328125 C 11.492188 -7.460938 11.734375 -6.492188 11.734375 -5.421875 Z M 9.765625 -5.421875 C 9.765625 -6.171875 9.609375 -6.835938 9.296875 -7.421875 C 8.992188 -8.003906 8.578125 -8.457031 8.046875 -8.78125 C 7.515625 -9.113281 6.921875 -9.28125 6.265625 -9.28125 C 5.617188 -9.28125 5.03125 -9.113281 4.5 -8.78125 C 3.96875 -8.457031 3.546875 -8.003906 3.234375 -7.421875 C 2.929688 -6.835938 2.78125 -6.171875 2.78125 -5.421875 C 2.78125 -4.691406 2.929688 -4.035156 3.234375 -3.453125 C 3.546875 -2.878906 3.96875 -2.425781 4.5 -2.09375 C 5.03125 -1.769531 5.617188 -1.609375 6.265625 -1.609375 C 6.921875 -1.609375 7.515625 -1.769531 8.046875 -2.09375 C 8.578125 -2.425781 8.992188 -2.878906 9.296875 -3.453125 C 9.609375 -4.035156 9.765625 -4.691406 9.765625 -5.421875 Z M 9.765625 -5.421875 "/></g></g></g><g fill="#3aacff" fill-opacity="1"><g transform="translate(169.19709, 106.057564)"><g><path d="M 7 -11.09375 C 9.476562 -11.09375 10.71875 -9.601562 10.71875 -6.625 L 10.71875 -1 C 10.71875 -0.71875 10.625 -0.476562 10.4375 -0.28125 C 10.257812 -0.09375 10.023438 0 9.734375 0 C 9.453125 0 9.21875 -0.09375 9.03125 -0.28125 C 8.84375 -0.476562 8.75 -0.71875 8.75 -1 L 8.75 -6.609375 C 8.75 -7.421875 8.5625 -8.066406 8.1875 -8.546875 C 7.820312 -9.035156 7.21875 -9.28125 6.375 -9.28125 C 5.820312 -9.28125 5.320312 -9.15625 4.875 -8.90625 C 4.425781 -8.664062 4.070312 -8.34375 3.8125 -7.9375 C 3.5625 -7.53125 3.4375 -7.085938 3.4375 -6.609375 L 3.4375 -1 C 3.4375 -0.71875 3.34375 -0.476562 3.15625 -0.28125 C 2.96875 -0.09375 2.726562 0 2.4375 0 C 2.15625 0 1.921875 -0.09375 1.734375 -0.28125 C 1.554688 -0.46875 1.46875 -0.707031 1.46875 -1 L 1.46875 -9.859375 C 1.46875 -10.128906 1.5625 -10.359375 1.75 -10.546875 C 1.9375 -10.742188 2.164062 -10.84375 2.4375 -10.84375 C 2.726562 -10.84375 2.96875 -10.742188 3.15625 -10.546875 C 3.34375 -10.359375 3.4375 -10.128906 3.4375 -9.859375 L 3.4375 -9.125 C 3.789062 -9.675781 4.289062 -10.140625 4.9375 -10.515625 C 5.582031 -10.898438 6.269531 -11.09375 7 -11.09375 Z M 7 -11.09375 "/></g></g></g><g fill="#3aacff" fill-opacity="1"><g transform="translate(186.022035, 106.057564)"><g><path d="M 10.265625 -11 C 10.554688 -11 10.796875 -10.90625 10.984375 -10.71875 C 11.171875 -10.53125 11.265625 -10.285156 11.265625 -9.984375 L 11.265625 -1 C 11.265625 -0.71875 11.171875 -0.476562 10.984375 -0.28125 C 10.796875 -0.09375 10.554688 0 10.265625 0 C 9.972656 0 9.738281 -0.09375 9.5625 -0.28125 C 9.382812 -0.46875 9.296875 -0.707031 9.296875 -1 L 9.296875 -1.53125 C 8.929688 -1.050781 8.4375 -0.640625 7.8125 -0.296875 C 7.195312 0.0351562 6.53125 0.203125 5.8125 0.203125 C 4.875 0.203125 4.019531 -0.0351562 3.25 -0.515625 C 2.488281 -0.992188 1.890625 -1.664062 1.453125 -2.53125 C 1.023438 -3.394531 0.8125 -4.363281 0.8125 -5.4375 C 0.8125 -6.519531 1.023438 -7.488281 1.453125 -8.34375 C 1.890625 -9.207031 2.488281 -9.878906 3.25 -10.359375 C 4.007812 -10.847656 4.84375 -11.09375 5.75 -11.09375 C 6.488281 -11.09375 7.171875 -10.941406 7.796875 -10.640625 C 8.421875 -10.335938 8.921875 -9.953125 9.296875 -9.484375 L 9.296875 -9.984375 C 9.296875 -10.265625 9.382812 -10.503906 9.5625 -10.703125 C 9.738281 -10.898438 9.972656 -11 10.265625 -11 Z M 6.046875 -1.609375 C 6.691406 -1.609375 7.265625 -1.773438 7.765625 -2.109375 C 8.273438 -2.441406 8.671875 -2.894531 8.953125 -3.46875 C 9.234375 -4.050781 9.375 -4.707031 9.375 -5.4375 C 9.375 -6.15625 9.234375 -6.804688 8.953125 -7.390625 C 8.671875 -7.972656 8.273438 -8.429688 7.765625 -8.765625 C 7.265625 -9.109375 6.691406 -9.28125 6.046875 -9.28125 C 5.398438 -9.28125 4.820312 -9.113281 4.3125 -8.78125 C 3.8125 -8.445312 3.421875 -7.988281 3.140625 -7.40625 C 2.859375 -6.832031 2.71875 -6.175781 2.71875 -5.4375 C 2.71875 -4.707031 2.859375 -4.050781 3.140625 -3.46875 C 3.421875 -2.894531 3.8125 -2.441406 4.3125 -2.109375 C 4.820312 -1.773438 5.398438 -1.609375 6.046875 -1.609375 Z M 6.109375 -11.609375 C 6.003906 -11.609375 5.890625 -11.65625 5.765625 -11.75 C 5.640625 -11.851562 5.582031 -11.988281 5.59375 -12.15625 C 5.59375 -12.257812 5.632812 -12.378906 5.71875 -12.515625 L 6.9375 -14.578125 C 7.050781 -14.765625 7.1875 -14.921875 7.34375 -15.046875 C 7.5 -15.171875 7.679688 -15.234375 7.890625 -15.234375 C 8.191406 -15.234375 8.421875 -15.15625 8.578125 -15 C 8.742188 -14.84375 8.816406 -14.628906 8.796875 -14.359375 C 8.796875 -14.117188 8.695312 -13.878906 8.5 -13.640625 L 6.9375 -11.9375 C 6.71875 -11.71875 6.441406 -11.609375 6.109375 -11.609375 Z M 6.109375 -11.609375 "/></g></g></g><g fill="#3aacff" fill-opacity="1"><g transform="translate(203.364279, 106.057564)"><g><path d="M 6.875 -11.09375 C 7.226562 -11.09375 7.535156 -11 7.796875 -10.8125 C 8.066406 -10.625 8.203125 -10.394531 8.203125 -10.125 C 8.203125 -9.789062 8.113281 -9.535156 7.9375 -9.359375 C 7.769531 -9.191406 7.5625 -9.109375 7.3125 -9.109375 C 7.1875 -9.109375 7 -9.148438 6.75 -9.234375 C 6.457031 -9.328125 6.226562 -9.375 6.0625 -9.375 C 5.632812 -9.375 5.21875 -9.222656 4.8125 -8.921875 C 4.40625 -8.628906 4.070312 -8.222656 3.8125 -7.703125 C 3.5625 -7.191406 3.4375 -6.617188 3.4375 -5.984375 L 3.4375 -1 C 3.4375 -0.71875 3.34375 -0.476562 3.15625 -0.28125 C 2.96875 -0.09375 2.726562 0 2.4375 0 C 2.15625 0 1.921875 -0.09375 1.734375 -0.28125 C 1.554688 -0.46875 1.46875 -0.707031 1.46875 -1 L 1.46875 -9.859375 C 1.46875 -10.128906 1.5625 -10.359375 1.75 -10.546875 C 1.9375 -10.742188 2.164062 -10.84375 2.4375 -10.84375 C 2.726562 -10.84375 2.96875 -10.742188 3.15625 -10.546875 C 3.34375 -10.359375 3.4375 -10.128906 3.4375 -9.859375 L 3.4375 -8.796875 C 3.738281 -9.472656 4.191406 -10.019531 4.796875 -10.4375 C 5.410156 -10.863281 6.101562 -11.082031 6.875 -11.09375 Z M 6.875 -11.09375 "/></g></g></g><g fill="#3aacff" fill-opacity="1"><g transform="translate(216.547551, 106.057564)"><g><path d="M 3.328125 -1 C 3.328125 -0.71875 3.234375 -0.476562 3.046875 -0.28125 C 2.867188 -0.09375 2.632812 0 2.34375 0 C 2.0625 0 1.828125 -0.09375 1.640625 -0.28125 C 1.453125 -0.476562 1.359375 -0.71875 1.359375 -1 L 1.359375 -9.953125 C 1.359375 -10.234375 1.453125 -10.46875 1.640625 -10.65625 C 1.828125 -10.851562 2.0625 -10.953125 2.34375 -10.953125 C 2.632812 -10.953125 2.867188 -10.851562 3.046875 -10.65625 C 3.234375 -10.46875 3.328125 -10.234375 3.328125 -9.953125 Z M 2.34375 -12.3125 C 1.945312 -12.3125 1.660156 -12.382812 1.484375 -12.53125 C 1.316406 -12.675781 1.234375 -12.910156 1.234375 -13.234375 L 1.234375 -13.5625 C 1.234375 -13.894531 1.320312 -14.128906 1.5 -14.265625 C 1.6875 -14.398438 1.976562 -14.46875 2.375 -14.46875 C 2.757812 -14.46875 3.035156 -14.394531 3.203125 -14.25 C 3.378906 -14.101562 3.46875 -13.875 3.46875 -13.5625 L 3.46875 -13.234375 C 3.46875 -12.898438 3.375 -12.660156 3.1875 -12.515625 C 3.007812 -12.378906 2.726562 -12.3125 2.34375 -12.3125 Z M 2.34375 -12.3125 "/></g></g></g><g fill="#3aacff" fill-opacity="1"><g transform="translate(225.882223, 106.057564)"><g><path d="M 10.265625 -11 C 10.554688 -11 10.796875 -10.90625 10.984375 -10.71875 C 11.171875 -10.53125 11.265625 -10.285156 11.265625 -9.984375 L 11.265625 -1 C 11.265625 -0.71875 11.171875 -0.476562 10.984375 -0.28125 C 10.796875 -0.09375 10.554688 0 10.265625 0 C 9.972656 0 9.738281 -0.09375 9.5625 -0.28125 C 9.382812 -0.46875 9.296875 -0.707031 9.296875 -1 L 9.296875 -1.53125 C 8.929688 -1.050781 8.4375 -0.640625 7.8125 -0.296875 C 7.195312 0.0351562 6.53125 0.203125 5.8125 0.203125 C 4.875 0.203125 4.019531 -0.0351562 3.25 -0.515625 C 2.488281 -0.992188 1.890625 -1.664062 1.453125 -2.53125 C 1.023438 -3.394531 0.8125 -4.363281 0.8125 -5.4375 C 0.8125 -6.519531 1.023438 -7.488281 1.453125 -8.34375 C 1.890625 -9.207031 2.488281 -9.878906 3.25 -10.359375 C 4.007812 -10.847656 4.84375 -11.09375 5.75 -11.09375 C 6.488281 -11.09375 7.171875 -10.941406 7.796875 -10.640625 C 8.421875 -10.335938 8.921875 -9.953125 9.296875 -9.484375 L 9.296875 -9.984375 C 9.296875 -10.265625 9.382812 -10.503906 9.5625 -10.703125 C 9.738281 -10.898438 9.972656 -11 10.265625 -11 Z M 6.046875 -1.609375 C 6.691406 -1.609375 7.265625 -1.773438 7.765625 -2.109375 C 8.273438 -2.441406 8.671875 -2.894531 8.953125 -3.46875 C 9.234375 -4.050781 9.375 -4.707031 9.375 -5.4375 C 9.375 -6.15625 9.234375 -6.804688 8.953125 -7.390625 C 8.671875 -7.972656 8.273438 -8.429688 7.765625 -8.765625 C 7.265625 -9.109375 6.691406 -9.28125 6.046875 -9.28125 C 5.398438 -9.28125 4.820312 -9.113281 4.3125 -8.78125 C 3.8125 -8.445312 3.421875 -7.988281 3.140625 -7.40625 C 2.859375 -6.832031 2.71875 -6.175781 2.71875 -5.4375 C 2.71875 -4.707031 2.859375 -4.050781 3.140625 -3.46875 C 3.421875 -2.894531 3.8125 -2.441406 4.3125 -2.109375 C 4.820312 -1.773438 5.398438 -1.609375 6.046875 -1.609375 Z M 6.046875 -1.609375 "/></g></g></g><g fill="#3aacff" fill-opacity="1"><g transform="translate(243.224467, 106.057564)"><g/></g></g><g fill="#3aacff" fill-opacity="1"><g transform="translate(253.593704, 106.057564)"><g><path d="M 10.265625 -15.3125 C 10.554688 -15.3125 10.796875 -15.21875 10.984375 -15.03125 C 11.171875 -14.851562 11.265625 -14.617188 11.265625 -14.328125 L 11.265625 -1 C 11.265625 -0.71875 11.171875 -0.476562 10.984375 -0.28125 C 10.796875 -0.09375 10.554688 0 10.265625 0 C 9.972656 0 9.738281 -0.09375 9.5625 -0.28125 C 9.382812 -0.46875 9.296875 -0.707031 9.296875 -1 L 9.296875 -1.578125 C 8.953125 -1.078125 8.460938 -0.65625 7.828125 -0.3125 C 7.203125 0.03125 6.53125 0.203125 5.8125 0.203125 C 4.875 0.203125 4.023438 -0.0351562 3.265625 -0.515625 C 2.503906 -0.992188 1.90625 -1.664062 1.46875 -2.53125 C 1.03125 -3.394531 0.8125 -4.363281 0.8125 -5.4375 C 0.8125 -6.519531 1.023438 -7.488281 1.453125 -8.34375 C 1.890625 -9.207031 2.488281 -9.878906 3.25 -10.359375 C 4.007812 -10.847656 4.84375 -11.09375 5.75 -11.09375 C 6.488281 -11.09375 7.164062 -10.941406 7.78125 -10.640625 C 8.40625 -10.335938 8.910156 -9.945312 9.296875 -9.46875 L 9.296875 -14.328125 C 9.296875 -14.617188 9.382812 -14.851562 9.5625 -15.03125 C 9.738281 -15.21875 9.972656 -15.3125 10.265625 -15.3125 Z M 6.046875 -1.609375 C 6.691406 -1.609375 7.265625 -1.773438 7.765625 -2.109375 C 8.273438 -2.441406 8.671875 -2.894531 8.953125 -3.46875 C 9.234375 -4.050781 9.375 -4.707031 9.375 -5.4375 C 9.375 -6.15625 9.234375 -6.804688 8.953125 -7.390625 C 8.671875 -7.984375 8.273438 -8.445312 7.765625 -8.78125 C 7.265625 -9.113281 6.691406 -9.28125 6.046875 -9.28125 C 5.398438 -9.28125 4.820312 -9.113281 4.3125 -8.78125 C 3.8125 -8.445312 3.421875 -7.984375 3.140625 -7.390625 C 2.859375 -6.804688 2.71875 -6.15625 2.71875 -5.4375 C 2.71875 -4.707031 2.859375 -4.050781 3.140625 -3.46875 C 3.421875 -2.894531 3.8125 -2.441406 4.3125 -2.109375 C 4.820312 -1.773438 5.398438 -1.609375 6.046875 -1.609375 Z M 6.046875 -1.609375 "/></g></g></g><g fill="#3aacff" fill-opacity="1"><g transform="translate(270.935949, 106.057564)"><g><path d="M 3.328125 -1 C 3.328125 -0.71875 3.234375 -0.476562 3.046875 -0.28125 C 2.867188 -0.09375 2.632812 0 2.34375 0 C 2.0625 0 1.828125 -0.09375 1.640625 -0.28125 C 1.453125 -0.476562 1.359375 -0.71875 1.359375 -1 L 1.359375 -9.953125 C 1.359375 -10.234375 1.453125 -10.46875 1.640625 -10.65625 C 1.828125 -10.851562 2.0625 -10.953125 2.34375 -10.953125 C 2.632812 -10.953125 2.867188 -10.851562 3.046875 -10.65625 C 3.234375 -10.46875 3.328125 -10.234375 3.328125 -9.953125 Z M 2.34375 -12.3125 C 1.945312 -12.3125 1.660156 -12.382812 1.484375 -12.53125 C 1.316406 -12.675781 1.234375 -12.910156 1.234375 -13.234375 L 1.234375 -13.5625 C 1.234375 -13.894531 1.320312 -14.128906 1.5 -14.265625 C 1.6875 -14.398438 1.976562 -14.46875 2.375 -14.46875 C 2.757812 -14.46875 3.035156 -14.394531 3.203125 -14.25 C 3.378906 -14.101562 3.46875 -13.875 3.46875 -13.5625 L 3.46875 -13.234375 C 3.46875 -12.898438 3.375 -12.660156 3.1875 -12.515625 C 3.007812 -12.378906 2.726562 -12.3125 2.34375 -12.3125 Z M 2.34375 -12.3125 "/></g></g></g><g fill="#3aacff" fill-opacity="1"><g transform="translate(280.270609, 106.057564)"><g><path d="M 10.53125 -11 C 10.820312 -11 11.0625 -10.90625 11.25 -10.71875 C 11.4375 -10.53125 11.53125 -10.285156 11.53125 -9.984375 L 11.53125 -0.875 C 11.53125 0.25 11.289062 1.1875 10.8125 1.9375 C 10.34375 2.6875 9.695312 3.238281 8.875 3.59375 C 8.0625 3.957031 7.144531 4.140625 6.125 4.140625 C 5.570312 4.140625 4.925781 4.039062 4.1875 3.84375 C 3.445312 3.65625 2.976562 3.457031 2.78125 3.25 C 2.34375 3.03125 2.125 2.753906 2.125 2.421875 C 2.125 2.335938 2.15625 2.226562 2.21875 2.09375 C 2.363281 1.75 2.617188 1.578125 2.984375 1.578125 C 3.160156 1.578125 3.351562 1.617188 3.5625 1.703125 C 4.664062 2.128906 5.53125 2.34375 6.15625 2.34375 C 7.257812 2.34375 8.101562 2.078125 8.6875 1.546875 C 9.269531 1.015625 9.5625 0.285156 9.5625 -0.640625 L 9.5625 -1.765625 C 9.269531 -1.222656 8.78125 -0.757812 8.09375 -0.375 C 7.414062 0.0078125 6.695312 0.203125 5.9375 0.203125 C 4.988281 0.203125 4.117188 -0.0351562 3.328125 -0.515625 C 2.546875 -0.992188 1.929688 -1.664062 1.484375 -2.53125 C 1.035156 -3.394531 0.8125 -4.363281 0.8125 -5.4375 C 0.8125 -6.519531 1.035156 -7.488281 1.484375 -8.34375 C 1.929688 -9.207031 2.546875 -9.878906 3.328125 -10.359375 C 4.109375 -10.847656 4.96875 -11.09375 5.90625 -11.09375 C 6.65625 -11.09375 7.359375 -10.921875 8.015625 -10.578125 C 8.671875 -10.234375 9.1875 -9.8125 9.5625 -9.3125 L 9.5625 -9.984375 C 9.5625 -10.265625 9.648438 -10.503906 9.828125 -10.703125 C 10.015625 -10.898438 10.25 -11 10.53125 -11 Z M 6.171875 -1.609375 C 6.847656 -1.609375 7.445312 -1.769531 7.96875 -2.09375 C 8.488281 -2.425781 8.894531 -2.882812 9.1875 -3.46875 C 9.488281 -4.050781 9.640625 -4.707031 9.640625 -5.4375 C 9.640625 -6.175781 9.488281 -6.832031 9.1875 -7.40625 C 8.894531 -7.988281 8.488281 -8.445312 7.96875 -8.78125 C 7.445312 -9.113281 6.847656 -9.28125 6.171875 -9.28125 C 5.503906 -9.28125 4.910156 -9.113281 4.390625 -8.78125 C 3.867188 -8.445312 3.457031 -7.984375 3.15625 -7.390625 C 2.863281 -6.804688 2.71875 -6.15625 2.71875 -5.4375 C 2.71875 -4.726562 2.863281 -4.078125 3.15625 -3.484375 C 3.457031 -2.898438 3.867188 -2.441406 4.390625 -2.109375 C 4.910156 -1.773438 5.503906 -1.609375 6.171875 -1.609375 Z M 6.171875 -1.609375 "/></g></g></g><g fill="#3aacff" fill-opacity="1"><g transform="translate(297.881837, 106.057564)"><g><path d="M 3.328125 -1 C 3.328125 -0.71875 3.234375 -0.476562 3.046875 -0.28125 C 2.867188 -0.09375 2.632812 0 2.34375 0 C 2.0625 0 1.828125 -0.09375 1.640625 -0.28125 C 1.453125 -0.476562 1.359375 -0.71875 1.359375 -1 L 1.359375 -9.953125 C 1.359375 -10.234375 1.453125 -10.46875 1.640625 -10.65625 C 1.828125 -10.851562 2.0625 -10.953125 2.34375 -10.953125 C 2.632812 -10.953125 2.867188 -10.851562 3.046875 -10.65625 C 3.234375 -10.46875 3.328125 -10.234375 3.328125 -9.953125 Z M 2.34375 -12.3125 C 1.945312 -12.3125 1.660156 -12.382812 1.484375 -12.53125 C 1.316406 -12.675781 1.234375 -12.910156 1.234375 -13.234375 L 1.234375 -13.5625 C 1.234375 -13.894531 1.320312 -14.128906 1.5 -14.265625 C 1.6875 -14.398438 1.976562 -14.46875 2.375 -14.46875 C 2.757812 -14.46875 3.035156 -14.394531 3.203125 -14.25 C 3.378906 -14.101562 3.46875 -13.875 3.46875 -13.5625 L 3.46875 -13.234375 C 3.46875 -12.898438 3.375 -12.660156 3.1875 -12.515625 C 3.007812 -12.378906 2.726562 -12.3125 2.34375 -12.3125 Z M 2.34375 -12.3125 "/></g></g></g><g fill="#3aacff" fill-opacity="1"><g transform="translate(307.216497, 106.057564)"><g><path d="M 4.40625 -8.921875 L 4.40625 -2.75 C 4.40625 -2.0625 4.71875 -1.71875 5.34375 -1.71875 C 5.4375 -1.71875 5.566406 -1.738281 5.734375 -1.78125 C 5.898438 -1.832031 6.03125 -1.859375 6.125 -1.859375 C 6.300781 -1.859375 6.453125 -1.78125 6.578125 -1.625 C 6.703125 -1.476562 6.765625 -1.289062 6.765625 -1.0625 C 6.765625 -0.769531 6.597656 -0.519531 6.265625 -0.3125 C 5.941406 -0.101562 5.570312 0 5.15625 0 C 4.695312 0 4.273438 -0.046875 3.890625 -0.140625 C 3.515625 -0.242188 3.175781 -0.488281 2.875 -0.875 C 2.582031 -1.269531 2.4375 -1.867188 2.4375 -2.671875 L 2.4375 -8.921875 L 1.234375 -8.921875 C 0.972656 -8.921875 0.753906 -9.003906 0.578125 -9.171875 C 0.410156 -9.347656 0.328125 -9.566406 0.328125 -9.828125 C 0.328125 -10.097656 0.410156 -10.3125 0.578125 -10.46875 C 0.753906 -10.632812 0.972656 -10.71875 1.234375 -10.71875 L 2.4375 -10.71875 L 2.4375 -12.46875 C 2.4375 -12.738281 2.53125 -12.96875 2.71875 -13.15625 C 2.90625 -13.351562 3.144531 -13.453125 3.4375 -13.453125 C 3.707031 -13.453125 3.9375 -13.351562 4.125 -13.15625 C 4.3125 -12.96875 4.40625 -12.738281 4.40625 -12.46875 L 4.40625 -10.71875 L 6.125 -10.71875 C 6.382812 -10.71875 6.597656 -10.628906 6.765625 -10.453125 C 6.941406 -10.285156 7.03125 -10.070312 7.03125 -9.8125 C 7.03125 -9.550781 6.941406 -9.335938 6.765625 -9.171875 C 6.597656 -9.003906 6.382812 -8.921875 6.125 -8.921875 Z M 4.40625 -8.921875 "/></g></g></g><g fill="#3aacff" fill-opacity="1"><g transform="translate(319.716955, 106.057564)"><g><path d="M 10.265625 -11 C 10.554688 -11 10.796875 -10.90625 10.984375 -10.71875 C 11.171875 -10.53125 11.265625 -10.285156 11.265625 -9.984375 L 11.265625 -1 C 11.265625 -0.71875 11.171875 -0.476562 10.984375 -0.28125 C 10.796875 -0.09375 10.554688 0 10.265625 0 C 9.972656 0 9.738281 -0.09375 9.5625 -0.28125 C 9.382812 -0.46875 9.296875 -0.707031 9.296875 -1 L 9.296875 -1.53125 C 8.929688 -1.050781 8.4375 -0.640625 7.8125 -0.296875 C 7.195312 0.0351562 6.53125 0.203125 5.8125 0.203125 C 4.875 0.203125 4.019531 -0.0351562 3.25 -0.515625 C 2.488281 -0.992188 1.890625 -1.664062 1.453125 -2.53125 C 1.023438 -3.394531 0.8125 -4.363281 0.8125 -5.4375 C 0.8125 -6.519531 1.023438 -7.488281 1.453125 -8.34375 C 1.890625 -9.207031 2.488281 -9.878906 3.25 -10.359375 C 4.007812 -10.847656 4.84375 -11.09375 5.75 -11.09375 C 6.488281 -11.09375 7.171875 -10.941406 7.796875 -10.640625 C 8.421875 -10.335938 8.921875 -9.953125 9.296875 -9.484375 L 9.296875 -9.984375 C 9.296875 -10.265625 9.382812 -10.503906 9.5625 -10.703125 C 9.738281 -10.898438 9.972656 -11 10.265625 -11 Z M 6.046875 -1.609375 C 6.691406 -1.609375 7.265625 -1.773438 7.765625 -2.109375 C 8.273438 -2.441406 8.671875 -2.894531 8.953125 -3.46875 C 9.234375 -4.050781 9.375 -4.707031 9.375 -5.4375 C 9.375 -6.15625 9.234375 -6.804688 8.953125 -7.390625 C 8.671875 -7.972656 8.273438 -8.429688 7.765625 -8.765625 C 7.265625 -9.109375 6.691406 -9.28125 6.046875 -9.28125 C 5.398438 -9.28125 4.820312 -9.113281 4.3125 -8.78125 C 3.8125 -8.445312 3.421875 -7.988281 3.140625 -7.40625 C 2.859375 -6.832031 2.71875 -6.175781 2.71875 -5.4375 C 2.71875 -4.707031 2.859375 -4.050781 3.140625 -3.46875 C 3.421875 -2.894531 3.8125 -2.441406 4.3125 -2.109375 C 4.820312 -1.773438 5.398438 -1.609375 6.046875 -1.609375 Z M 6.046875 -1.609375 "/></g></g></g><g fill="#3aacff" fill-opacity="1"><g transform="translate(337.0592, 106.057564)"><g><path d="M 3.609375 -1 C 3.609375 -0.71875 3.507812 -0.476562 3.3125 -0.28125 C 3.113281 -0.09375 2.878906 0 2.609375 0 C 2.328125 0 2.09375 -0.09375 1.90625 -0.28125 C 1.726562 -0.476562 1.640625 -0.71875 1.640625 -1 L 1.640625 -14.328125 C 1.640625 -14.597656 1.734375 -14.828125 1.921875 -15.015625 C 2.117188 -15.210938 2.351562 -15.3125 2.625 -15.3125 C 2.90625 -15.3125 3.140625 -15.210938 3.328125 -15.015625 C 3.515625 -14.828125 3.609375 -14.597656 3.609375 -14.328125 Z M 3.609375 -1 "/></g></g></g><g fill="#185c79" fill-opacity="1"><g transform="translate(4.570604, 73.111762)"><g><path d="M 41.75 -14.21875 C 44.144531 -14.21875 46.472656 -14.578125 48.734375 -15.296875 C 50.992188 -16.023438 52.648438 -16.726562 53.703125 -17.40625 L 55.296875 -18.484375 L 61.984375 -5.109375 C 61.765625 -4.941406 61.457031 -4.71875 61.0625 -4.4375 C 60.675781 -4.15625 59.769531 -3.632812 58.34375 -2.875 C 56.925781 -2.125 55.40625 -1.46875 53.78125 -0.90625 C 52.164062 -0.351562 50.046875 0.140625 47.421875 0.578125 C 44.804688 1.023438 42.101562 1.25 39.3125 1.25 C 32.90625 1.25 26.828125 -0.320312 21.078125 -3.46875 C 15.335938 -6.625 10.707031 -10.960938 7.1875 -16.484375 C 3.675781 -22.003906 1.921875 -27.96875 1.921875 -34.375 C 1.921875 -39.226562 2.953125 -43.882812 5.015625 -48.34375 C 7.078125 -52.8125 9.820312 -56.632812 13.25 -59.8125 C 16.6875 -62.988281 20.691406 -65.523438 25.265625 -67.421875 C 29.835938 -69.316406 34.519531 -70.265625 39.3125 -70.265625 C 43.78125 -70.265625 47.894531 -69.734375 51.65625 -68.671875 C 55.414062 -67.617188 58.078125 -66.5625 59.640625 -65.5 L 61.984375 -63.90625 L 55.296875 -50.53125 C 54.910156 -50.863281 54.328125 -51.265625 53.546875 -51.734375 C 52.765625 -52.210938 51.203125 -52.84375 48.859375 -53.625 C 46.515625 -54.40625 44.144531 -54.796875 41.75 -54.796875 C 37.957031 -54.796875 34.550781 -54.179688 31.53125 -52.953125 C 28.519531 -51.722656 26.132812 -50.101562 24.375 -48.09375 C 22.625 -46.09375 21.285156 -43.929688 20.359375 -41.609375 C 19.441406 -39.296875 18.984375 -36.941406 18.984375 -34.546875 C 18.984375 -29.304688 20.945312 -24.609375 24.875 -20.453125 C 28.8125 -16.296875 34.4375 -14.21875 41.75 -14.21875 Z M 41.75 -14.21875 "/></g></g></g><g fill="#185c79" fill-opacity="1"><g transform="translate(74.993893, 73.111762)"><g><path d="M 7.9375 -5.3125 C 3.925781 -9.6875 1.921875 -15.050781 1.921875 -21.40625 C 1.921875 -27.769531 3.925781 -33.15625 7.9375 -37.5625 C 11.957031 -41.96875 17.0625 -44.171875 23.25 -44.171875 C 28.945312 -44.171875 33.632812 -42.382812 37.3125 -38.8125 L 37.3125 -42.921875 L 52.125 -42.921875 L 52.125 0 L 37.484375 0 L 37.484375 -4.859375 L 37.3125 -4.859375 C 33.632812 -0.785156 28.945312 1.25 23.25 1.25 C 17.0625 1.25 11.957031 -0.9375 7.9375 -5.3125 Z M 20.53125 -28.6875 C 18.613281 -26.789062 17.65625 -24.363281 17.65625 -21.40625 C 17.65625 -18.457031 18.570312 -16.046875 20.40625 -14.171875 C 22.25 -12.304688 24.675781 -11.375 27.6875 -11.375 C 30.59375 -11.375 32.976562 -12.320312 34.84375 -14.21875 C 36.707031 -16.113281 37.640625 -18.515625 37.640625 -21.421875 C 37.640625 -24.367188 36.675781 -26.789062 34.75 -28.6875 C 32.832031 -30.582031 30.476562 -31.53125 27.6875 -31.53125 C 24.84375 -31.53125 22.457031 -30.582031 20.53125 -28.6875 Z M 20.53125 -28.6875 "/></g></g></g><g fill="#185c79" fill-opacity="1"><g transform="translate(139.562628, 73.111762)"><g><path d="M 5.015625 0 L 5.015625 -42.921875 L 19.828125 -42.921875 L 19.828125 -36.71875 L 20 -36.71875 C 20.101562 -36.945312 20.28125 -37.226562 20.53125 -37.5625 C 20.789062 -37.894531 21.335938 -38.476562 22.171875 -39.3125 C 23.003906 -40.15625 23.894531 -40.910156 24.84375 -41.578125 C 25.789062 -42.242188 27.015625 -42.84375 28.515625 -43.375 C 30.023438 -43.90625 31.5625 -44.171875 33.125 -44.171875 C 34.738281 -44.171875 36.328125 -43.945312 37.890625 -43.5 C 39.453125 -43.050781 40.597656 -42.601562 41.328125 -42.15625 L 42.5 -41.5 L 36.3125 -28.9375 C 34.46875 -30.5 31.898438 -31.28125 28.609375 -31.28125 C 26.828125 -31.28125 25.289062 -30.890625 24 -30.109375 C 22.71875 -29.328125 21.8125 -28.378906 21.28125 -27.265625 C 20.757812 -26.148438 20.382812 -25.203125 20.15625 -24.421875 C 19.9375 -23.640625 19.828125 -23.03125 19.828125 -22.59375 L 19.828125 0 Z M 5.015625 0 "/></g></g></g><g fill="#185c79" fill-opacity="1"><g transform="translate(188.658657, 73.111762)"><g><path d="M 5.015625 0 L 5.015625 -71.9375 L 19.828125 -71.9375 L 19.828125 0 Z M 5.015625 0 "/></g></g></g><g fill="#185c79" fill-opacity="1"><g transform="translate(220.943787, 73.111762)"><g><path d="M 6.4375 -66.84375 C 8.164062 -68.570312 10.226562 -69.4375 12.625 -69.4375 C 15.03125 -69.4375 17.097656 -68.570312 18.828125 -66.84375 C 20.554688 -65.113281 21.421875 -63.046875 21.421875 -60.640625 C 21.421875 -58.242188 20.554688 -56.179688 18.828125 -54.453125 C 17.097656 -52.722656 15.03125 -51.859375 12.625 -51.859375 C 10.226562 -51.859375 8.164062 -52.722656 6.4375 -54.453125 C 4.707031 -56.179688 3.84375 -58.242188 3.84375 -60.640625 C 3.84375 -63.046875 4.707031 -65.113281 6.4375 -66.84375 Z M 5.015625 -42.921875 L 5.015625 0 L 19.828125 0 L 19.828125 -42.921875 Z M 5.015625 -42.921875 "/></g></g></g><g fill="#185c79" fill-opacity="1"><g transform="translate(253.647097, 73.111762)"><g><path d="M 5.015625 0 L 5.015625 -42.921875 L 19.828125 -42.921875 L 19.828125 -38.390625 L 20 -38.390625 C 23.84375 -42.242188 27.941406 -44.171875 32.296875 -44.171875 C 34.410156 -44.171875 36.515625 -43.890625 38.609375 -43.328125 C 40.703125 -42.773438 42.707031 -41.910156 44.625 -40.734375 C 46.550781 -39.566406 48.113281 -37.910156 49.3125 -35.765625 C 50.507812 -33.617188 51.109375 -31.125 51.109375 -28.28125 L 51.109375 0 L 36.3125 0 L 36.3125 -24.265625 C 36.3125 -26.492188 35.597656 -28.441406 34.171875 -30.109375 C 32.753906 -31.785156 30.898438 -32.625 28.609375 -32.625 C 26.378906 -32.625 24.359375 -31.757812 22.546875 -30.03125 C 20.734375 -28.300781 19.828125 -26.378906 19.828125 -24.265625 L 19.828125 0 Z M 5.015625 0 "/></g></g></g><g fill="#185c79" fill-opacity="1"><g transform="translate(316.375866, 73.111762)"><g><path d="M 54.046875 -42.921875 L 33.625 -22.421875 L 56.046875 0 L 36.96875 0 L 19.828125 -17.15625 L 19.828125 0 L 5.015625 0 L 5.015625 -71.9375 L 19.828125 -71.9375 L 19.828125 -27.9375 L 34.796875 -42.921875 Z M 54.046875 -42.921875 "/></g></g></g><g fill="#3aacff" fill-opacity="1"><g transform="translate(219.098759, 20.825884)"><g><path d="M 14.421875 -17.734375 C 17.066406 -17.734375 19.316406 -16.804688 21.171875 -14.953125 C 23.023438 -13.109375 23.953125 -10.859375 23.953125 -8.203125 C 23.953125 -5.609375 23.023438 -3.382812 21.171875 -1.53125 C 19.316406 0.320312 17.066406 1.25 14.421875 1.25 C 11.816406 1.25 9.585938 0.320312 7.734375 -1.53125 C 5.890625 -3.382812 4.96875 -5.609375 4.96875 -8.203125 C 4.96875 -10.859375 5.890625 -13.109375 7.734375 -14.953125 C 9.585938 -16.804688 11.816406 -17.734375 14.421875 -17.734375 Z M 14.421875 -17.734375 "/></g></g></g></svg>